<svg height="512" viewBox="0 0 56 52" width="512" xmlns="http://www.w3.org/2000/svg"><g id="040---Hair-Cutting" transform="translate(0 -1)"><path id="Shape" d="m25.42 7.69c-.3053919.51473938-.7139502.96074879-1.2 1.31 1.144646 1.9292302 1.7587395 4.1268568 1.78 6.37h.47c.8-2.87 1.07-5.18.68-6-.455732-.67239696-1.0445304-1.24417806-1.73-1.68z"/><path id="Shape" d="m17.76 7.83c2.81.21 4.69.49 5.74-.85.7187643-1.22359041.9975179-2.6561724.79-4.06-3.37 1.85-9.95 1.08-15.29 1.08-6.79 0-6.66 5.37-5.19 12l.22.05c.14-2.8 1-4.87 2.48-6.29 2.83-2.57 7.3-2.23 11.25-1.93z"/><path id="Shape" d="m54.42 26.46c3.78-3.79.36-10.93-5.34-11.26-2.0346493-.1676678-3.9933446.8116799-5.08 2.54-.23.4-.34.87-.79 1.1s-.32.16-4.21-.24l.31 3.28 3.3.31c.77.07.92.9 1.1 1.31 2.01 4.5 7.68 5.98 10.71 2.96zm-6.36-9.26c2.38-.44 5 1.58 5.69 3.86 1.17 3.72-2.36 6.35-5.88 4.23-3.69-2.23-3.59-7.38.19-8.09z"/><path id="Shape" d="m6 49v4h18v-4c0-.5522847.4477153-1 1-1s1 .4477153 1 1v4h4v-6c0-3.8659932-3.1340068-7-7-7h-.63c-7.23 6.2-6.84 6-7.37 6s-.14.2-7.37-6h-.63c-3.86599325 0-7 3.1340068-7 7v6h4v-4c0-.5522847.44771525-1 1-1s1 .4477153 1 1z"/><path id="Shape" d="m32 21.2-.31-3.29-15.06-1.41c-.111093 1.7916621 1.2138733 3.3507058 3 3.53 22.37 2.09 6.2.58 12.37 1.17z"/><path id="Shape" d="m23.69 22.42-4.21-.42c-1.4169335-.1290707-2.7237706-.8182654-3.630556-1.9146686-.9067855-1.0964031-1.3385315-2.5093461-1.199444-3.9253314.07-.75 0-1.2.43-1.54.2057285-.1730085.4724463-.2559073.74-.23l8.14.77c-.0274153-1.890869-.5814941-3.7366441-1.6-5.33-1.5793038.2161704-3.1806962.2161704-4.76 0-7.16-.56-11.6-.19-11.6 7.17-.06011449 2.5803366.18831319 5.158613.74 7.68.56567746 2.5464239 1.87424009 4.8677305 3.76 6.67 2.5855819 2.2300264 6.4144181 2.2300264 9 0 2.44-2.09 3.75-5.72 4.19-8.93z"/><path id="Shape" d="m10.62 33.87c-.2688747 1.66941-.73548994 3.3008849-1.39 4.86l5.77 5 5.77-5c-.6551808-1.5623405-1.1218055-3.1972055-1.39-4.87-2.7212536 1.5200566-6.035283 1.5238397-8.76.01z"/><path id="Shape" d="m3.36 18s-.36.31-.36 1.93c0 2 .68 3 1.44 3.54-.27398089-1.7269159-.42104138-3.471588-.44-5.22-.18381122-.1449738-.4065908-.231997-.64-.25z"/><path id="Shape" d="m42.08 38.79c3.07-3.07 1.49-8.87-3.18-10.76-1.23-.5-1 0-1.47-5.06l-1.77-18.84c-.0540329-.88462317-.4574426-1.71150137-1.1214003-2.29856002s-1.5340187-.88615878-2.4185997-.83143998c2.65 28.26 2.62 26.23 2.19 26.74-.2969242.2577579-.6349367.4639455-1 .61-3.21 2-3.39 6.75-.32 9.82 2.69 2.68 6.76 2.96 9.09.62zm-7.31-19.64c.2487776-.2489255.6230206-.3234538.9481809-.1888247.3251602.1346292.5371848.4518955.5371848.8038247s-.2120246.6691955-.5371848.8038247c-.3251603.1346291-.6994033.0601008-.9481809-.1888247-.3395123-.3397143-.3395123-.8902857 0-1.23zm1 10.44c2.36-.43 5 1.56 5.69 3.86 1.17 3.72-2.36 6.35-5.88 4.23-3.68-2.23-3.58-7.38.2-8.09z"/></g></svg>