<?xml version="1.0" encoding="iso-8859-1"?>
<!-- Generator: Adobe Illustrator 16.0.0, SVG Export Plug-In . SVG Version: 6.00 Build 0)  -->
<!DOCTYPE svg PUBLIC "-//W3C//DTD SVG 1.1//EN" "http://www.w3.org/Graphics/SVG/1.1/DTD/svg11.dtd">
<svg version="1.1" id="Capa_1" xmlns="http://www.w3.org/2000/svg" xmlns:xlink="http://www.w3.org/1999/xlink" x="0px" y="0px"
	 width="31.087px" height="31.087px" viewBox="0 0 31.087 31.087" style="enable-background:new 0 0 31.087 31.087;"
	 xml:space="preserve">
<g>
	<path d="M27.476,7.754c0,0,0.887-0.521-0.253-3.069c-1.141-2.546-3.354-1.129-3.354-1.129s1.033-0.91,0.521-1.805
		c-0.511-0.896-1.849-0.656-1.849-0.656s0.72-0.384-0.9-0.963c-1.619-0.579-1.956,1.232-2.411,1.23c-0.455,0-2.242-1.865-5.076-1.23
		c-1.349,0.229-3.867-0.724-6.003,1.553c-0.495-0.423-3.553,0.443-3.676,2.36c-1-0.468-3.249,2.221-2.237,3.996
		c0.547,0.602,1.069,0.62,1.394,0.543c0.013,1.178,0.261,2.216,0.465,2.74c0.013,0.047,0.023,0.097,0.034,0.146
		c-0.265,0.054-0.681,0.054-1.013-0.417c-0.14,0.678,0.645,0.778,1.074,0.784c0.046,0.45-0.011,0.938-0.318,1.398
		c-0.643,0.966-1.362,1.408-1.594,2.057c-0.331,0.902,1.405,1.061,1.405,1.061l0.004,0.345c0,0-0.556,0.539-0.438,0.962
		c0.158,0.562,1.276,0.361,1.276,0.361s-1.074,0.396-1.023,0.919c0.051,0.523,0.5,0.75,0.5,0.75s-1.04,2.044,0.489,2.494
		c1.53,0.448,4.632-1.417,5.037,0.765c0.39,1.504,2.132,5.197,1.529,5.891c-0.604,0.691-1.529,1.754-1.529,1.754l15.873,0.494
		c0,0-4.9-6.342-5.396-7.062c-0.442-0.643-2.133-3.031-1.196-4.944c0.64,0.232,1.755,0.404,1.82-1.209
		c1.236,0.006,1.635-1.568,1.635-1.568s3.244,0.462,2.867-2.883c-0.129-0.513,3.322,0.443,3.878-1.821
		C29.566,9.333,27.476,7.754,27.476,7.754z"/>
</g>
<g>
</g>
<g>
</g>
<g>
</g>
<g>
</g>
<g>
</g>
<g>
</g>
<g>
</g>
<g>
</g>
<g>
</g>
<g>
</g>
<g>
</g>
<g>
</g>
<g>
</g>
<g>
</g>
<g>
</g>
</svg>
