<?xml version="1.0" encoding="iso-8859-1"?>
<!-- Generator: Adobe Illustrator 16.0.0, SVG Export Plug-In . SVG Version: 6.00 Build 0)  -->
<!DOCTYPE svg PUBLIC "-//W3C//DTD SVG 1.1//EN" "http://www.w3.org/Graphics/SVG/1.1/DTD/svg11.dtd">
<svg version="1.1" id="Capa_1" xmlns="http://www.w3.org/2000/svg" xmlns:xlink="http://www.w3.org/1999/xlink" x="0px" y="0px"
	 width="379.8px" height="379.799px" viewBox="0 0 379.8 379.799" style="enable-background:new 0 0 379.8 379.799;"
	 xml:space="preserve">
<g>
	<g>
		<path d="M290.931,213.739L290.931,213.739h-0.012c-2.276-0.584-4.542-1.028-6.819-1.332c-0.069-0.011-0.14-0.023-0.222-0.046
			c-2.323-0.292-4.636-0.467-6.901-0.467c-1.564,0-3.117,0.094-4.647,0.233c-0.467,0.047-0.91,0.117-1.378,0.164
			c-1.086,0.14-2.16,0.304-3.223,0.514c-0.502,0.093-0.992,0.198-1.483,0.327c-1.062,0.232-2.102,0.514-3.141,0.84
			c-0.42,0.141-0.841,0.258-1.262,0.374c-1.4,0.491-2.79,1.028-4.133,1.658c-0.012,0-0.023,0.012-0.023,0.012l0,0
			c-2.078,0.981-4.053,2.16-5.955,3.491l0,0l0,0c-1.379,0.969-2.709,1.985-3.982,3.13c-0.292,0.269-0.537,0.561-0.829,0.841l0,0
			c-1.413,1.378-2.709,2.826-3.877,4.379l0,0l0,0c-1.81,2.37-3.362,4.916-4.636,7.613c-1.109-1.366-2.615-3.234-4.426-5.477l0,0
			c-1.389-1.729-3.047-3.76-4.799-5.943c-3.06-3.795-6.668-8.232-10.673-13.207c-2.23-2.756-4.578-5.652-7.053-8.723l0,0
			c-2.406-2.978-4.905-6.072-7.497-9.284l0,0c-0.128-0.175-0.257-0.338-0.397-0.49l0,0c-5.103-6.317-10.515-13.038-16.185-20.044
			c26.998-63.196,53.586-136.604,49.277-172.295c-4.611,10.065-38.557,84.087-68.24,148.848
			C124.427,94.398,75.447,33.765,68.657,25.357c4.52,34.769,46.428,97.095,87.263,150.769
			c-11.829,25.795-21.988,47.982-27.92,60.896c-1.185-1.424-2.452-2.803-3.854-4.075c-7.964-7.251-18.246-10.731-29.21-10.731
			c-16.692,0-34.949,8.104-48.845,23.354c-23.016,25.281-25.398,60.604-5.295,78.914c7.964,7.239,18.245,10.743,29.21,10.743
			c16.704,0,34.95-8.115,48.846-23.378c8.01-8.805,13.464-18.823,16.406-28.913l0.251,0.654c0,0,18.356-35.825,39.457-82.907
			c5.611,7.076,11.041,13.86,16.254,20.283l0,0c0.228,0.269,0.45,0.549,0.677,0.829c0.625,0.771,1.244,1.541,1.868,2.312
			c0.094,0.116,0.193,0.232,0.274,0.338l0,0c2.645,3.234,5.202,6.364,7.689,9.377l0,0c0.047,0.059,0.082,0.105,0.129,0.164
			c4.857,5.885,9.376,11.303,13.44,16.137l0,0c0.187,0.223,0.35,0.421,0.526,0.631c2.604,3.095,5.032,5.955,7.228,8.536
			c0.105,0.116,0.211,0.245,0.304,0.362l0,0c3.024,3.561,5.605,6.562,7.672,8.968l0,0c0.035,0.023,0.047,0.046,0.07,0.069
			c3.573,4.135,5.628,6.481,5.628,6.481l0.176-1.576c3.001,9.762,8.36,19.431,16.126,27.954l0,0l0,0
			c13.907,15.274,32.136,23.379,48.845,23.379c10.965,0,21.241-3.504,29.205-10.744c20.096-18.309,17.714-53.621-5.302-78.914
			C315.71,224.177,303.344,216.926,290.931,213.739z M111.699,276.094c-2.009,6.912-5.798,13.557-10.977,19.244
			c-8.752,9.598-20.23,15.344-30.717,15.344c-5.249,0-9.528-1.473-12.699-4.345c-9.721-8.851-6.481-29.543,6.924-44.256
			c8.752-9.634,20.243-15.367,30.717-15.367c5.249,0,9.528,1.472,12.711,4.344c0.42,0.386,0.911,0.935,1.471,1.589l6.96,8.406
			L111.699,276.094z M173.057,182.666c-3.387,0-6.137-2.738-6.137-6.131c0-3.398,2.738-6.136,6.137-6.136
			c3.38,0,6.13,2.738,6.13,6.136C179.187,179.927,176.437,182.666,173.057,182.666z M314.589,296.015
			c-3.164,2.896-7.438,4.344-12.693,4.344c-10.475,0-21.965-5.733-30.723-15.344c-2.686-2.966-4.985-6.2-6.877-9.575
			c5.395-12.494,11.046-25.607,16.721-38.744c9.296,1.249,19.011,6.679,26.636,15.062
			C321.081,266.495,324.315,287.175,314.589,296.015z"/>
		<path d="M286.505,0.042c-2.312-0.356-2.837,1.675-1.12,2.68c12.506,7.427,23.19,14.649,30.792,22.333L282.08,10.352l-2.195,5.091
			l43.695,18.858c1.472,2.423,2.593,4.939,3.387,7.508l-49.277-21.264l-2.195,5.108l52.64,22.718
			c0.141,1.926,0.035,3.912-0.233,5.955l-54.625-23.564l-2.195,5.103l55.595,23.985c-0.409,1.354-0.946,2.738-1.541,4.139
			l-55.806-24.084l-2.195,5.097l55.84,24.102c-0.595,1.39-1.249,2.931-2.043,4.747l-55.84-24.09l-2.207,5.103l55.852,24.107
			c-0.7,1.588-1.425,3.299-2.207,5.097l-55.852-24.096l-2.184,5.08l55.84,24.107c-0.724,1.646-1.448,3.333-2.207,5.103
			l-55.84-24.102l-2.207,5.103l55.84,24.107c-0.082,0.216-0.175,0.403-0.269,0.619c0,0-0.631,1.495-1.764,4.127l-55.852-24.096
			l-2.207,5.109l55.84,24.09c-0.665,1.547-1.377,3.217-2.195,5.109L247.62,90.224l-2.207,5.109l55.853,24.102
			c-0.515,1.197-1.04,2.405-1.601,3.696l-55.84-24.102l-2.207,5.103l55.84,24.096c-0.677,1.542-1.342,3.106-2.043,4.747
			l-55.84-24.107l-2.219,5.108l55.852,24.102c-0.712,1.652-1.459,3.375-2.195,5.109l-55.84-24.107l-2.219,5.091l55.84,24.107
			c-0.712,1.676-1.447,3.375-2.195,5.097l-55.84-24.096l-2.195,5.091l55.84,24.107c-0.677,1.565-1.366,3.147-2.043,4.747
			l-55.852-24.096l-2.207,5.097l55.84,24.107c-0.725,1.682-1.46,3.393-2.195,5.103l-55.852-24.09l-2.207,5.091l55.84,24.107
			c-0.596,1.396-1.203,2.808-1.811,4.221l-55.851-24.107l-2.195,5.103l55.851,24.107c-0.677,1.576-1.365,3.159-2.055,4.747
			l-55.84-24.107l-2.195,5.109l55.84,24.102c-0.596,1.343-1.168,2.686-1.752,4.04l-55.839-24.113l-2.184,5.109l53.972,23.29
			c4.823-1.39,9.938-2.137,15.298-2.137c5.675,0,11.443,0.934,17.13,2.51c22.058-51.122,41.161-95.384,41.161-95.384
			c6.96-16.12,12.344-28.626,14.9-34.5C361.963,49.126,330.423,6.738,286.505,0.042z"/>
		<path d="M239.179,220.137c1.039-1.168,2.055-2.359,3.199-3.41c0.338-0.291,0.688-0.537,1.016-0.828l-16.185-6.983l7.509,9.283
			L239.179,220.137z"/>
		<path d="M230.935,280.625l-55.204-23.81l-2.207,5.104l55.846,24.102c-0.735,1.739-1.482,3.433-2.195,5.113l-55.852-24.102
			l-2.201,5.092l55.834,24.113c-0.688,1.6-1.366,3.188-2.043,4.752l-55.846-24.102l-2.201,5.092l55.84,24.113
			c-0.759,1.74-1.483,3.445-2.207,5.104l-55.834-24.102l-2.213,5.103l55.84,24.09c-0.619,1.472-1.238,2.86-1.821,4.239
			l-55.846-24.113l-2.201,5.091l55.84,24.113c-0.725,1.669-1.413,3.258-2.044,4.753l-55.852-24.113l-2.201,5.103L208,335.472
			c-0.829,1.927-1.564,3.632-2.195,5.091l-55.84-24.09l-2.213,5.092l55.811,24.102c-0.748,1.786-1.588,3.444-2.476,4.975
			l-55.548-23.962l-2.212,5.091l54.514,23.518c-1.226,1.495-2.51,2.791-3.906,3.947l-52.652-22.712l-2.213,5.091l49.289,21.275
			c-2.417,1.203-4.998,2.091-7.783,2.698l-43.708-18.87l-2.207,5.091l34.085,14.714c-11.093-0.258-24.02-3.224-38.406-7.381
			c-1.804-0.537-1.95,1.519-0.105,2.967c34.985,27.336,87.456,21.217,99.273-6.189c2.942-6.819,10.404-24.125,20.073-46.521
			c-0.83-0.841-1.705-1.611-2.5-2.499C240.101,299.145,234.554,290.141,230.935,280.625z"/>
		<path d="M254.639,208.647l-42.458-18.327l2.65,3.275l4.857,6.014l28.819,12.436C250.458,210.772,252.514,209.628,254.639,208.647z
			"/>
		<path d="M177.932,251.711l44.665,19.291c-2.324-2.709-5.056-5.908-8.186-9.587l-34.29-14.794L177.932,251.711z"/>
		<path d="M185.983,233.075l7.461,3.2c-1.892-2.288-3.83-4.647-5.804-7.076L185.983,233.075z"/>
		<path d="M182.188,241.868l24.75,10.686c-2.476-2.943-5.126-6.131-7.87-9.436l-14.69-6.352L182.188,241.868z"/>
	</g>
</g>
<g>
</g>
<g>
</g>
<g>
</g>
<g>
</g>
<g>
</g>
<g>
</g>
<g>
</g>
<g>
</g>
<g>
</g>
<g>
</g>
<g>
</g>
<g>
</g>
<g>
</g>
<g>
</g>
<g>
</g>
</svg>
