<?xml version="1.0" encoding="iso-8859-1"?>
<!-- Generator: Adobe Illustrator 16.0.0, SVG Export Plug-In . SVG Version: 6.00 Build 0)  -->
<!DOCTYPE svg PUBLIC "-//W3C//DTD SVG 1.1//EN" "http://www.w3.org/Graphics/SVG/1.1/DTD/svg11.dtd">
<svg version="1.1" id="Capa_1" xmlns="http://www.w3.org/2000/svg" xmlns:xlink="http://www.w3.org/1999/xlink" x="0px" y="0px"
	 width="29.041px" height="29.041px" viewBox="0 0 29.041 29.041" style="enable-background:new 0 0 29.041 29.041;"
	 xml:space="preserve">
<g>
	<path d="M12.961,27.735h8.185v1.306h-8.185V27.735z M20.354,6.045h0.789v21.26H12.96V6.044h0.977V4.295h0.484V3.724h1.547V1.379
		l2.574,0.002v0.461h0.209v1.312h-0.209v0.57h1.361v0.572h0.449l0,0v1.749H20.354z M15.006,7.538H13.97v18.483h1.036V7.538z
		 M2.589,9.047h7.716v19.994H2.589V9.047z M3.172,15.889h6.551v-6.26H3.172V15.889z M8.898,4.582H4.045v3.592h4.854L8.898,4.582
		L8.898,4.582z M26.325,0.289L26.243,0l-7.159,2.032l0.082,0.289L26.325,0.289z M19.293,2.756l-0.082,0.289l7.16,2.032l0.081-0.289
		L19.293,2.756z M19.258,2.717l6.726-0.068l-0.002-0.301l-6.727,0.069L19.258,2.717z"/>
</g>
<g>
</g>
<g>
</g>
<g>
</g>
<g>
</g>
<g>
</g>
<g>
</g>
<g>
</g>
<g>
</g>
<g>
</g>
<g>
</g>
<g>
</g>
<g>
</g>
<g>
</g>
<g>
</g>
<g>
</g>
</svg>
