<?xml version="1.0" encoding="iso-8859-1"?>
<!-- Generator: Adobe Illustrator 16.0.0, SVG Export Plug-In . SVG Version: 6.00 Build 0)  -->
<!DOCTYPE svg PUBLIC "-//W3C//DTD SVG 1.1//EN" "http://www.w3.org/Graphics/SVG/1.1/DTD/svg11.dtd">
<svg version="1.1" id="Capa_1" xmlns="http://www.w3.org/2000/svg" xmlns:xlink="http://www.w3.org/1999/xlink" x="0px" y="0px"
	 width="382.352px" height="382.353px" viewBox="0 0 382.352 382.353" style="enable-background:new 0 0 382.352 382.353;"
	 xml:space="preserve">
<g>
	<g>
		<path d="M85.207,100.966c0,0,0.391-2.148,1.051-5.914c0.684-3.719,1.758-8.945,3.275-14.988c0.765-3.024,1.734-6.218,2.82-9.54
			c1.08-3.299,2.37-6.708,3.865-10.089c1.471-3.398,3.24-6.731,5.155-9.978c0.882-1.74,2.032-2.913,2.966-4.466
			c0.823-1.437,2.581-3.24,3.824-4.834l0.502-0.619l0.216-0.263l0.023-0.047l1.074-1.057l2.12-2.102
			c1.419-1.401,2.75-2.873,4.134-4.268c2.837-2.75,5.92-5.202,8.693-7.824c3.001-2.399,5.909-4.735,8.658-6.936
			c2.885-2.148,5.605-4.168,8.122-6.025c2.604-1.757,4.998-3.421,7.111-4.963c2.189-1.36,4.075-2.686,5.646-3.754
			C157.616,1.255,159.497,0,159.497,0s-2.201,0.023-6.049,0.607c-3.83,0.613-9.243,1.787-15.548,3.982
			c-3.071,1.22-6.493,2.464-9.972,4.104c-3.369,1.792-7.029,3.597-10.579,5.856c-3.434,2.44-7.141,4.811-10.539,7.724
			c-1.635,1.524-3.322,3.042-4.945,4.63l-2.452,2.359l-1.231,1.191l-0.088,0.088l-0.035,0.035l-0.298,0.321l-0.117,0.158
			l-0.263,0.31l-0.514,0.607c-1.354,1.798-2.633,3.089-4.035,5.302c-1.313,2.055-2.832,4.233-3.777,6.3
			c-2.178,4.11-3.812,8.366-5.01,12.541c-2.394,8.349-3.071,16.336-2.82,23.057c0.128,6.731,1.185,12.243,2.125,15.986
			C84.295,98.922,85.207,100.966,85.207,100.966z"/>
		<path d="M308,114.897c-0.257-3.778-0.771-7.497-1.447-11.169c-0.748-3.596-1.635-7.613-2.662-10.819l-1.495-4.939l-1.892-5.214
			c-1.156-3.333-2.628-6.562-3.971-9.779c-5.64-12.804-13.113-24.405-21.789-33.986c-8.618-9.668-18.566-17.072-28.422-22.321
			c-9.867-5.331-19.665-8.454-28.399-10.317c-8.758-1.915-16.505-2.475-22.84-2.621c-6.353-0.181-11.315,0.263-14.684,0.561
			c-3.351,0.35-5.132,0.566-5.132,0.566s1.781,0.07,5.155,0.21c3.346,0.192,8.262,0.66,14.41,1.542
			c6.142,0.911,13.516,2.487,21.655,5.108c8.104,2.68,16.909,6.58,25.608,12.15c8.642,5.617,17.072,13.043,24.405,22.169
			c7.356,9.137,13.382,20.061,18.274,31.96c1.121,3.024,2.37,6.014,3.328,9.172l1.472,4.507l1.331,4.998
			c0.945,3.41,1.378,6.229,1.974,9.493c0.514,3.241,0.945,6.458,1.133,9.721c0.828,13.049-1.402,26.25-6.562,38.634
			c-4.928,12.495-12.332,24.277-20.226,35.686c-7.52,10.731-15.215,21.451-22.326,32.311c1.974-6.586,3.655-13.243,4.997-20.015
			c2.512-13.09,3.62-26.507,2.943-40.087c-0.678-13.546-3.316-27.453-9.867-40.286c-0.782-1.611-1.67-3.176-2.627-4.724
			c-0.854-1.53-1.962-3.129-3.13-4.723c-1.168-1.734-2.148-2.82-3.177-4.052l-0.771-0.899l-0.42-0.49l-0.21-0.234l-0.421-0.467
			l-1.774-1.869c-4.718-4.962-9.926-9.266-15.157-13.236c-10.457-7.976-21.171-14.708-30.448-22.309
			c-4.642-3.83-8.752-8.016-12.01-12.775c-3.369-4.671-5.663-10.054-6.931-15.828c-1.243-5.786-1.594-11.958-1.103-18.175
			c0.058-0.806,0.205-1.618,0.286-2.417c0.543-2.358,1.081-4.735,1.495-7.111c0.49-3.088,0.794-6.113,1.115-9.172
			c-0.181,0.368-0.339,0.753-0.525,1.133l0,0c0.187-0.368,0.333-0.765,0.525-1.133c-0.386,0.514-0.718,1.074-1.104,1.6
			c-0.712,0.572-1.792,1.529-3.2,3.024c-2.464,2.657-5.815,6.948-8.828,13.154c-2.891,5.862-5.716,13.417-7.03,22.578
			c-4.963,7.474-10.416,14.585-16.097,21.568c-7.648,9.277-15.577,18.403-23.494,27.961c-3.865,4.863-7.666,9.85-11.239,15.157
			c-3.503,5.249-6.901,10.766-9.528,16.792l-3.556,6.913l-3.369,7.637c-1.985,5.237-3.842,10.585-4.793,16.226
			c-0.602,2.796-0.958,5.657-1.174,8.542c-0.274,2.855-0.251,5.798-0.134,8.7l0.35,4.367l0.8,4.338
			c0.684,2.849,1.46,5.704,2.604,8.384c1.004,2.738,2.382,5.342,3.876,7.818c1.448,2.534,3.206,4.822,5.056,6.983
			c3.743,4.32,7.999,8.045,12.617,11.105c9.242,6.002,19.489,10.018,30.033,11.536c-4.852-2.125-9.394-4.765-13.738-7.544
			c-4.292-2.884-8.414-5.932-12.027-9.411c-3.637-3.457-6.924-7.169-9.494-11.233c-1.278-2.043-2.429-4.134-3.421-6.282
			c-0.993-2.125-1.862-4.309-2.44-6.568c-0.689-2.236-1.04-4.548-1.349-6.831c-0.263-2.306-0.356-4.624-0.344-6.959
			c0.058-2.33,0.175-4.677,0.561-7.03c0.321-2.33,0.765-4.677,1.413-6.983c0.461-2.33,1.43-4.606,2.09-6.924
			c0.753-2.295,1.734-4.566,2.569-6.849l3.135-6.72l3.55-6.592l0.134-0.239l0.152-0.321c2.44-5.056,5.167-10.077,8.361-14.958
			c3.165-4.904,6.662-9.709,10.293-14.479c7.105-9.698,14.876-19.25,21.789-29.607c2.26-3.369,4.455-6.802,6.574-10.305
			c0.753,5.319,2.225,10.819,4.939,16.26c2.82,5.751,6.896,11.274,12.004,15.998c1.291,1.139,2.657,2.248,4.017,3.363
			c1.424,1.016,2.872,2.055,4.355,3.013c1.098,0.654,2.248,1.326,3.357,1.997c0.502,0.391,0.981,0.847,1.483,1.232
			c2.166,1.746,4.508,3.094,6.767,4.647l3.433,1.95c7.234,5.943,13.785,13.609,18.882,22.204c0.958,1.618,1.751,3.363,2.592,5.051
			c0.409,1.062,0.841,2.102,1.238,3.176c1.098,3.754,2.102,7.573,2.499,11.555c1.027,7.876,0.514,16.08-0.864,24.201
			c-1.471,8.127-3.597,16.301-6.48,24.289c-1.781,5.033-3.889,9.972-6.113,14.876c-1.985,1.81-4.122,3.667-6.434,5.512
			c-4.758,3.737-10.089,7.602-15.904,11.56c-5.926,3.9-12.167,8.012-18.648,12.262c-6.522,4.297-13.324,8.816-19.962,14.013
			c-6.644,5.138-13.364,10.696-19.343,17.188c-6.049,6.398-11.373,13.756-15.39,21.719c-4.128,7.801-6.732,17.844-5.167,27.104
			c1.483,9.377,6.615,16.955,11.981,22.525c5.454,5.674,11.543,9.551,17.16,12.751c5.646,3.223,11.122,5.418,15.951,7.239
			c1.71,0.654,3.328,1.191,4.904,1.705c1.71,1.378,3.479,2.686,5.295,3.807c9.003,5.383,18.835,7.987,28.533,8.746
			c19.355,1.344,38.774-3.479,54.421-14.234c7.824-5.348,14.527-12.284,19.244-20.318c4.134-6.842,6.539-14.479,7.684-22.139
			c1.729-2.569,3.152-4.812,4.238-6.551c1.846-3.107,2.826-4.754,2.826-4.754s-0.759,0.842-2.207,2.43
			c0.817-1.74,1.588-3.48,2.207-5.267c-0.175,0.245-0.35,0.491-0.502,0.735c0.023-0.082,0.07-0.198,0.094-0.268
			c0.257-0.818,0.408-1.25,0.408-1.25s-0.198,0.396-0.596,1.168c-0.338,0.735-0.898,1.763-1.728,2.966
			c-0.864,1.179-1.752,2.288-2.697,3.386c-1.95,2.056-4.589,4.158-8.244,5.488c-5.431,1.985-13.172,1.203-19.069-4.028
			c-6.025-5.032-9.423-13.978-9.645-23.81c-0.117-4.951,0.491-10.193,1.728-15.508c0.631-2.686,1.378-5.289,2.195-7.916
			c0.397-1.32,1.005-2.814,1.472-4.228l0.747-2.009l0.841-2.031c4.461-10.906,11.07-21.626,18.474-32.463
			c7.45-10.859,16.185-21.556,24.429-33.256c8.267-11.66,16.441-24.189,22.232-38.348C306.668,145.794,309.203,130.013,308,114.897z
			 M195.538,299.168c0.129-0.397,0.321-0.807,0.479-1.215c-0.181,1.6-0.303,3.223-0.373,4.834
			c-0.193,6.376,0.479,13.055,3.047,19.408c2.534,6.328,7.181,12.108,13.067,15.658c5.862,3.608,12.646,5.104,18.986,4.752
			c4.578-0.197,8.945-1.237,13.032-2.802c-1.892,1.425-3.854,2.837-5.979,4.228c-7.427,4.764-16.862,9.411-26.367,9.248
			c-9.487-0.141-16.85-7.053-19.302-17.947C189.606,324.529,191.41,311.615,195.538,299.168z M220.048,118.225l0.059,0.07
			C220.235,118.423,220.141,118.33,220.048,118.225z M176.691,77.77c9.266,9.768,19.729,17.241,28.796,25.509
			c4.577,4.099,8.793,8.343,12.669,12.722l1.424,1.658l0.362,0.42l0.035,0.047l0.012,0.012l0.082,0.123l0.724,0.94
			c0.957,1.261,2.008,2.61,2.522,3.579c1.249,1.962,2.697,4.531,3.748,7.03c2.254,5.044,3.842,10.498,4.904,16.144
			c0.082,0.409,0.117,0.835,0.198,1.244c-2.849-8.273-6.632-16.155-11.256-23.284c-8.524-13.259-19.997-23.506-32.889-30.524
			c-2.89-1.448-5.751-2.873-8.547-4.268c-0.905-0.502-1.711-1.104-2.581-1.629c-1.051-0.882-2.166-1.734-3.17-2.692
			c-1.664-1.611-3.252-3.298-4.724-5.091l-2.125-2.75l-1.892-2.931c-1.162-1.985-2.307-4.017-3.194-6.16
			c-1.004-2.125-1.722-4.361-2.417-6.609c-0.642-2.271-1.133-4.606-1.506-6.971c-0.31-2.37-0.549-4.77-0.596-7.199
			c-0.023-1.384,0.059-2.773,0.105-4.163c0.479-1.074,1.004-2.125,1.459-3.199c0.023-0.076,0.053-0.146,0.076-0.216
			c0.023,0.654,0,1.302,0.047,1.956c0.49,6.773,2.271,13.68,5.523,19.851C167.711,67.5,172.038,72.964,176.691,77.77z
			 M167.063,5.033c-1.658,3.638-3.205,7.368-4.46,11.216c-0.222,0.537-0.438,1.057-0.677,1.571c0.012-0.012,0.012-0.029,0.012-0.053
			C163.333,13.429,165.055,9.184,167.063,5.033L167.063,5.033z M118.305,341.018c-4.046-5.044-6.948-11.046-7.45-17.246
			c-0.589-6.307,1.221-12.623,5.033-19.046c3.696-6.492,8.373-12.611,13.773-18.251c5.43-5.617,11.274-11.047,17.521-15.986
			c6.253-4.939,12.564-9.762,18.759-14.491c6.23-4.659,12.278-9.283,17.802-14.024c1.425-1.191,2.803-2.37,4.151-3.55
			c-1.734,3.06-3.479,6.131-5.272,9.167c-4.437,7.52-9.242,14.877-14.205,22.151c-4.975,7.298-10.106,14.199-15.524,21.485
			c-5.488,7.404-10.953,15.775-14.678,25.105c-3.749,9.249-6.078,20.179-3.661,31.295c0.893,4.041,2.557,7.941,4.711,11.479
			c-2.382-1.576-4.823-3.258-7.298-5.079C127.151,350.43,122.369,346.039,118.305,341.018z M252.581,345.199
			c-5.441,6.771-12.261,12.213-19.758,16.23c-7.497,4.04-15.729,6.539-24.031,7.94c-8.32,1.343-16.821,1.401-24.925,0.069
			c-8.087-1.389-15.904-3.992-22.064-8.337c-6.153-4.32-10.211-10.218-11.216-16.815c-1.173-6.598,0.433-14.059,3.673-21.205
			c3.24-7.229,7.87-13.919,13.329-20.68c5.506-6.948,11.111-14.445,16.36-21.883c0.046-0.094,0.123-0.199,0.193-0.27
			c-1.903,4.555-3.649,9.155-4.998,13.838c-4.256,14.807-5.634,30.605-1.016,45.283c2.306,7.264,6.445,14.316,12.71,19.139
			c6.265,4.812,14.206,6.609,20.943,6.025c13.709-1.295,23.19-8.36,30.547-14.479c7.403-6.307,12.67-12.775,16.792-18.182
			c1.261-1.635,2.358-3.152,3.374-4.612C260.124,333.813,256.761,339.885,252.581,345.199z M235.099,323.899
			c6.283,4.554,13.558,5.231,19.244,3.83c-2.674,1.611-5.477,2.966-8.372,3.97c-9.809,3.516-20.949,2.535-27.932-3.059
			c-7.053-5.535-9.026-15.134-7.87-24.803c1.19-9.645,5.161-19.29,9.82-28.608c0.806-1.18,1.553-2.358,2.323-3.562
			c-0.537,2.266-1.004,4.52-1.308,6.737c-0.876,6.072-1.121,12.086-0.502,17.866C221.601,307.738,226.902,318.435,235.099,323.899z"
			/>
	</g>
</g>
<g>
</g>
<g>
</g>
<g>
</g>
<g>
</g>
<g>
</g>
<g>
</g>
<g>
</g>
<g>
</g>
<g>
</g>
<g>
</g>
<g>
</g>
<g>
</g>
<g>
</g>
<g>
</g>
<g>
</g>
</svg>
