<svg height="512" viewBox="0 0 192 192" width="512" xmlns="http://www.w3.org/2000/svg"><path d="m152 0c-18.6 0-34.282 10.214-38.734 24h-1.266v-8h-16v8h-24v-8h8v-16h-32v16h8v8h-40v16h40v8h-8a8 8 0 0 0 -8 8v23.994c-.014 8.689-1.987 22.68-5.657 26.349-1.248 1.249-2.9 2.639-4.644 4.111-8.64 7.285-21.699 18.294-21.699 41.546 0 20.561 19.439 40 40 40h32c20.561 0 40-19.439 40-40 0-23.252-13.059-34.261-21.7-41.546-1.746-1.472-3.4-2.862-4.644-4.111-3.669-3.669-5.642-17.66-5.656-26.343v-24a8 8 0 0 0 -8-8h-8v-8h24v8h16v-8h1.266c4.452 13.786 20.134 24 38.734 24 22.056 0 40-14.355 40-32s-17.944-32-40-32zm-96 64h16v8h-16zm48 88c0 11.664-12.337 24-24 24h-32c-11.663 0-24-12.336-24-24 0-15.813 8.141-22.676 16.013-29.313 2.012-1.7 3.915-3.3 5.644-5.03 6.964-6.964 9.251-20.637 9.993-29.657h16.7c.742 9.02 3.029 22.693 9.993 29.657 1.729 1.729 3.632 3.333 5.644 5.03 7.872 6.637 16.013 13.5 16.013 29.313zm48-104c-13.01 0-24-7.327-24-16s10.99-16 24-16 24 7.327 24 16-10.99 16-24 16z"/></svg>