<?xml version="1.0"?>
<svg xmlns="http://www.w3.org/2000/svg" xmlns:xlink="http://www.w3.org/1999/xlink" version="1.1" id="Capa_1" x="0px" y="0px" viewBox="0 0 512.001 512.001" style="enable-background:new 0 0 512.001 512.001;" xml:space="preserve" width="512px" height="512px" class=""><g><g>
	<g>
		<path d="M75.276,368.328c-2.929-2.929-7.678-2.929-10.606,0l-25.501,25.501c-2.929,2.929-2.929,7.678,0,10.606    c2.929,2.929,7.678,2.929,10.606,0l25.501-25.501C78.205,376.006,78.205,371.257,75.276,368.328z" data-original="#000000" class="active-path" data-old_color="#000000" fill="#FFFFFF"/>
	</g>
</g><g>
	<g>
		<path d="M100.084,393.136c-2.929-2.929-7.678-2.929-10.606,0l-25.501,25.501c-2.929,2.929-2.929,7.678,0,10.606    c2.929,2.929,7.678,2.929,10.606,0l25.501-25.501C103.013,400.814,103.013,396.065,100.084,393.136z" data-original="#000000" class="active-path" data-old_color="#000000" fill="#FFFFFF"/>
	</g>
</g><g>
	<g>
		<path d="M149.699,442.751c-2.928-2.929-7.677-2.929-10.606,0l-25.501,25.501c-2.929,2.929-2.929,7.678,0,10.606    c2.929,2.929,7.678,2.929,10.606,0l25.501-25.501C152.628,450.429,152.628,445.68,149.699,442.751z" data-original="#000000" class="active-path" data-old_color="#000000" fill="#FFFFFF"/>
	</g>
</g><g>
	<g>
		<path d="M124.891,417.944c-2.929-2.929-7.678-2.929-10.606,0l-25.501,25.501c-2.929,2.929-2.929,7.678,0,10.606    c2.929,2.929,7.678,2.929,10.606,0l25.501-25.501C127.82,425.622,127.82,420.873,124.891,417.944z" data-original="#000000" class="active-path" data-old_color="#000000" fill="#FFFFFF"/>
	</g>
</g><g>
	<g>
		<path d="M493.313,0.604c-32.586,9.525-126.042,36.843-156.958,45.88c-1.209,0.353-2.309,1.005-3.199,1.896L228.265,153.271    l-46.865,3.944C114.813,162.819,52.12,191.928,4.87,239.178c-9.945,9.945-3.733,26.967,10.262,28.189l91.08,7.956l-9.436,9.437    c-5.856,5.854-5.859,15.335,0,21.193l9.109,9.109l-18.473,18.473c-7.235,7.234-7.235,19.007,0,26.241    c7.907,7.907,56.866,56.866,64.815,64.815c7.234,7.235,19.008,7.235,26.241,0l18.472-18.472l8.62,8.62    c6.12,6.121,16.069,6.1,22.17,0l8.948-8.948l7.956,91.079c0.566,6.479,4.714,11.886,10.826,14.11    c6.094,2.219,12.753,0.761,17.362-3.849c29.075-29.074,51.06-63.391,65.347-101.998c1.438-3.885-0.546-8.199-4.431-9.637    c-3.886-1.439-8.199,0.545-9.637,4.431c-13.53,36.563-34.352,69.063-61.886,96.597c-0.939,0.941-2.522,0.374-2.638-0.961    l-9.051-103.622l91.792-91.792c-3.046,37.186-3.872,46.884-8.124,65.73c-0.912,4.041,1.625,8.055,5.666,8.966    c4.039,0.911,8.055-1.625,8.966-5.666c5.192-23.011,5.588-33.947,9.904-85.443l104.891-104.891c0.891-0.89,1.542-1.99,1.896-3.199    l20.828-71.253c0-0.001,0.001-0.002,0.001-0.002l25.052-85.704C514.629,7.635,504.332-2.623,493.313,0.604z M16.438,252.424    c-1.326-0.115-1.904-1.694-0.96-2.638c44.748-44.748,104.121-72.315,167.18-77.623l29.17-2.455l-91.767,91.767L16.438,252.424z     M122.891,279.857l40.855,40.855l-15.499,15.498c-16.185-16.185-37.23-37.21-40.865-40.844L122.891,279.857z M119.452,365.006    c-0.952,0.952-1.782,1.993-2.5,3.096l-18.934-18.932c-1.362-1.363-1.362-3.665,0-5.028l18.473-18.474    c9.567,9.568,14.252,14.253,21.15,21.15L119.452,365.006z M136.756,381.576c-1.747,1.746-4.577,1.753-6.33,0    c-1.745-1.745-1.745-4.584,0-6.33c6.087-6.087,141.352-141.352,149.499-149.499c1.746-1.746,4.585-1.745,6.33,0    c1.746,1.747,1.752,4.578,0,6.33L185.986,332.346C180.588,337.744,141.413,376.919,136.756,381.576z M167.86,413.984    c-0.895,0.894-1.959,1.028-2.514,1.028c-0.555,0-1.619-0.134-2.514-1.028l-18.933-18.934c1.103-0.718,2.143-1.548,3.096-2.5    l18.188-18.188l21.15,21.15L167.86,413.984z M217.122,404.132c-0.016,0.016-0.036,0.021-0.053,0.035    c-0.267,0.218-0.656,0.212-0.903-0.035c-4.474-4.475-35.674-35.676-40.375-40.377l15.498-15.499l40.854,40.855L217.122,404.132z     M451.659,169.597c-9.922,9.922-200.109,200.109-208.907,208.907l-40.854-40.855l95.331-95.331    c6.871-6.871,8.19-18.62-0.734-27.544c-7.408-7.408-19.399-7.409-26.81,0l-95.332,95.332l-40.855-40.855    c8.329-8.329,199.184-199.184,208.907-208.907L407.552,41.3l63.148,63.149L451.659,169.597z M475.499,88.033l-51.531-51.531    l72.815-21.285L475.499,88.033z" data-original="#000000" class="active-path" data-old_color="#000000" fill="#FFFFFF"/>
	</g>
</g><g>
	<g>
		<path d="M381.911,130.093c-4.289-4.286-9.255-7.721-14.763-10.208c-3.775-1.703-8.217-0.026-9.922,3.749    c-1.705,3.775-0.026,8.217,3.749,9.922c22.293,10.068,27.56,39.396,10.328,56.627c-13.643,13.642-35.84,13.642-49.482,0    c-17.242-17.242-11.997-46.547,10.328-56.627c3.775-1.705,5.453-6.147,3.749-9.922c-1.705-3.775-6.148-5.453-9.922-3.749    c-31.847,14.383-39.436,56.23-14.76,80.905c9.745,9.745,22.547,14.618,35.348,14.618    C390.959,215.408,413.318,161.498,381.911,130.093z" data-original="#000000" class="active-path" data-old_color="#000000" fill="#FFFFFF"/>
	</g>
</g></g> </svg>
