<svg id="Layer_5" enable-background="new 0 0 64 64" height="512" viewBox="0 0 64 64" width="512" xmlns="http://www.w3.org/2000/svg" xmlns:xlink="http://www.w3.org/1999/xlink"><linearGradient id="SVGID_1_" gradientUnits="userSpaceOnUse" x1="32.147" x2="32.147" y1="62.707" y2="1"><stop offset="0" stop-color="#9f2fff"/><stop offset="1" stop-color="#0bb1d3"/></linearGradient><path d="m49.243 13.343 1.414 1.414-1.544 1.544c.528 1.114.344 2.484-.576 3.405l-1.415-1.414c.39-.39.39-1.024 0-1.415l-.707-.707-.707.707c-.39.39-.39 1.024 0 1.415 1.17 1.169 1.17 3.073 0 4.243l-2.121 2.121-1.414-1.414-1.414 1.414-1.414-1.414 1.544-1.544c-.528-1.114-.344-2.484.576-3.405l1.415 1.414c-.39.39-.39 1.024 0 1.415l.707.707.707-.707c.39-.39.39-1.024 0-1.415-1.17-1.169-1.17-3.073 0-4.243l2.121-2.121 1.414 1.414zm-1.414 9.9 1.414 1.414 1.414-1.414-1.414-1.414zm-5.658-8.486-1.414-1.414-1.414 1.414 1.414 1.414zm10.607-3.535c4.289 4.289 4.289 11.268 0 15.557-2.145 2.145-4.961 3.216-7.778 3.216s-5.634-1.072-7.778-3.216c-4.289-4.289-4.289-11.268 0-15.557s11.267-4.289 15.556 0zm-1.414 1.414c-1.754-1.754-4.06-2.631-6.364-2.631-2.305 0-4.609.877-6.364 2.631-3.509 3.509-3.509 9.219 0 12.729 3.509 3.507 9.219 3.508 12.729 0 3.508-3.51 3.508-9.22-.001-12.729zm4.062-11.636h7.574v7.574c0 7.715-2.802 14.998-7.92 20.693l3.012 14.056-6.092 6.091-8.5-8.5-1.5 1.5-1.5-1.5-1.086 1.086c-.645.645-1.502 1-2.414 1-.743 0-1.442-.246-2.027-.682-.137 2.791-1.275 5.399-3.266 7.389-2.124 2.124-4.947 3.293-7.95 3.293h-12.757v-12.757c0-3.003 1.169-5.826 3.293-7.95 1.99-1.99 4.598-3.129 7.389-3.266-.436-.585-.682-1.284-.682-2.027 0-.912.355-1.77 1-2.414l1.086-1.086-1.5-1.5 1.5-1.5-8.5-8.5 6.092-6.092 14.056 3.012c5.694-5.118 12.977-7.92 20.692-7.92zm-30.926 18.086 1.586-1.586-4.793-4.793 1.414-1.414 4.793 4.793 5.493-5.493-11.671-2.501-3.908 3.908zm-2.964 14.45c-.991.99-1.536 2.306-1.536 3.707v6.757h6.757c1.4 0 2.717-.545 3.707-1.536.847-.847 1.344-1.937 1.477-3.109l-7.297-7.297c-1.172.134-2.262.631-3.108 1.478zm11.429 8.941c-.302.503-.661.976-1.086 1.401-1.368 1.369-3.187 2.122-5.122 2.122h-8.757v-8.757c0-1.935.753-3.754 2.122-5.121.425-.426.898-.784 1.401-1.086-2.197.169-4.241 1.097-5.816 2.672-1.746 1.745-2.707 4.066-2.707 6.535v10.757h10.757c2.469 0 4.79-.961 6.536-2.707 1.574-1.574 2.503-3.619 2.672-5.816zm6.121-2.977-14.586-14.586-1.086 1.086c-.263.263-.414.628-.414 1s.151.737.414 1l12.586 12.586c.526.526 1.474.526 2 0zm16.822 3.178-2.501-11.671-5.493 5.493 4.793 4.793-1.414 1.414-4.793-4.793-1.586 1.586 7.086 7.086zm5.092-39.678h-5.574c-7.746 0-15.028 3.017-20.506 8.494l-10.506 10.506 17.586 17.586 10.506-10.506c5.477-5.478 8.494-12.76 8.494-20.506zm-58.293 59.707 1.343-1.343-1.414-1.414-1.343 1.343zm2.757-2.757 1.414-1.414-1.414-1.414-1.414 1.414zm2.829-5.657-1.414 1.414 1.414 1.414 1.414-1.414zm2.828 7-1.414-1.414-1.414 1.414 1.414 1.414zm1.415-4.243-1.414 1.414 1.414 1.414 1.414-1.414zm1.414-1.414 1.414 1.414 1.343-1.343-1.414-1.414zm-11.243.071 1.414-1.414-1.414-1.414-1.414 1.414zm2.829-2.829 1.414-1.414-1.414-1.414-1.414 1.414zm2.828-2.828 1.343-1.343-1.414-1.414-1.343 1.343zm1.343-8.343-1.414-1.414-1.343 1.343 1.414 1.414zm-5.585 2.757 1.414 1.414 1.414-1.414-1.414-1.414zm-.001 2.829-1.414-1.414-1.414 1.414 1.414 1.414zm15.415 9.757-1.414 1.414 1.414 1.414 1.414-1.414zm-2.829 5.657 1.414-1.414-1.414-1.414-1.414 1.414zm5.586-8.414-1.343 1.343 1.414 1.414 1.343-1.343z" fill="url(#SVGID_1_)"/></svg>